# Rhino

v -15 0 13
v -15 33 13
v 0 0 13
v 0 33 13
v 0 0 13
v 0 33 13
v 0 0 0
v 0 33 0
v 0 0 0
v 0 33 0
v -15 0 0
v -15 33 0
v -15 0 0
v -15 33 0
v -15 0 13
v -15 33 13
v -15 0 13
v 0 0 13
v 0 0 0
v -15 0 0
v -15 33 13
v 0 33 13
v 0 33 0
v -15 33 0
vt 0 0
vt 0 0.77966040372848511
vt 0.2678571343421936 0
vt 0.2678571343421936 0.77966040372848511
vt 0.2678571343421936 0
vt 0.2678571343421936 0.77966040372848511
vt 0.5 0
vt 0.5 0.77966040372848511
vt 0.5 0
vt 0.5 0.77966040372848511
vt 0.7678571343421936 0
vt 0.7678571343421936 0.77966040372848511
vt 0.7678571343421936 0
vt 0.7678571343421936 0.77966040372848511
vt 1 0
vt 1 0.77966040372848511
vt 0 1
vt 0.2678571343421936 1
vt 0.2678571343421936 0.77966117858886719
vt 0 0.77966117858886719
vt 0.7321428656578064 0.77966117858886719
vt 1 0.77966117858886719
vt 1 1
vt 0.7321428656578064 1
vn 0 0 1
vn 0 0 1
vn 0 0 1
vn 0 0 1
vn 1 0 0
vn 1 0 0
vn 1 0 0
vn 1 0 0
vn 0 0 -1
vn 0 0 -1
vn 0 0 -1
vn 0 0 -1
vn -1 0 0
vn -1 0 0
vn -1 0 0
vn -1 0 0
vn 0 -1 0
vn 0 -1 0
vn 0 -1 0
vn 0 -1 0
vn 0 1 0
vn 0 1 0
vn 0 1 0
vn 0 1 0
f 18/18/18 17/17/17 20/20/20 19/19/19
f 24/24/24 21/21/21 22/22/22 23/23/23
f 1/1/1 3/3/3 4/4/4 2/2/2
f 5/5/5 7/7/7 8/8/8 6/6/6
f 9/9/9 11/11/11 12/12/12 10/10/10
f 13/13/13 15/15/15 16/16/16 14/14/14
